<svg class="attr-icon" xmlns="http://www.w3.org/2000/svg" x="0px" y="0px"
                    width="50" height="50"
                    viewBox="0 0 192 192"
                    style=" fill:#000000; opacity: 0.15;"><g fill="none" fill-rule="nonzero" stroke="none" stroke-width="1" stroke-linecap="butt" stroke-linejoin="miter" stroke-miterlimit="10" stroke-dasharray="" stroke-dashoffset="0" font-family="none" font-weight="none" font-size="none" text-anchor="none" style="mix-blend-mode: normal"><path d="M0,192v-192h192v192z" fill="none"></path><g fill="#000000"><path d="M96,7.68c-48.70272,0 -88.32,39.61728 -88.32,88.32c0,48.70272 39.61728,88.32 88.32,88.32c48.70272,0 88.32,-39.61728 88.32,-88.32c0,-48.70272 -39.61728,-88.32 -88.32,-88.32zM39.44064,83.25888c-1.44384,-1.54368 -1.37088,-3.96288 0.16896,-5.4144c0.37632,-0.35712 9.408,-8.72448 21.8304,-8.72448c12.4224,0 21.45408,8.36736 21.83424,8.72064c1.54368,1.45536 1.61664,3.88608 0.16512,5.42976c-0.76032,0.8064 -1.77792,1.2096 -2.79936,1.2096c-0.9408,0 -1.8816,-0.34176 -2.62272,-1.0368c-0.07296,-0.06528 -7.26144,-6.6432 -16.57728,-6.6432c-9.31584,0 -16.50432,6.57792 -16.57728,6.6432c-1.55136,1.44 -3.97824,1.35552 -5.42208,-0.18432zM96,153.6c-39.81696,0 -49.92,-49.92 -49.92,-49.92c0,0 19.97184,11.52 49.92,11.52c29.94816,0 49.92,-11.52 49.92,-11.52c0,0 -10.10304,49.92 -49.92,49.92zM152.55552,83.27424c-0.76032,0.80256 -1.77792,1.20576 -2.79936,1.20576c-0.94464,0 -1.88928,-0.3456 -2.63424,-1.04064c-0.06144,-0.06144 -7.24992,-6.63936 -16.56192,-6.63936c-9.31584,0 -16.50432,6.57792 -16.57728,6.6432c-1.54752,1.44 -3.9744,1.35552 -5.42208,-0.18816c-1.44384,-1.54368 -1.37088,-3.96288 0.16896,-5.4144c0.37632,-0.35328 9.408,-8.72064 21.8304,-8.72064c12.41856,0 21.45024,8.36736 21.8304,8.72064c1.54368,1.45536 1.6128,3.88608 0.16512,5.4336z"></path></g><g fill="#000000"><path d=""></path></g></g></svg>