<svg class="attr-icon" xmlns="http://www.w3.org/2000/svg" x="0px" y="0px"
                    width="30" height="30"
                    viewBox="0 0 192 192"
                    style=" fill:#000000;"><g fill="none" fill-rule="nonzero" stroke="none" stroke-width="1" stroke-linecap="butt" stroke-linejoin="miter" stroke-miterlimit="10" stroke-dasharray="" stroke-dashoffset="0" font-family="none" font-weight="none" font-size="none" text-anchor="none" style="mix-blend-mode: normal"><path d="M0,192v-192h192v192z" fill="none"></path><g fill="#000000"><path d="M83.2,19.2c-35.27042,0 -64,28.72958 -64,64c0,35.27042 28.72958,64 64,64c15.33765,0 29.42326,-5.44649 40.4625,-14.4875l38.2125,38.2125c1.60523,1.67194 3.98891,2.34544 6.23174,1.76076c2.24283,-0.58468 3.99434,-2.33619 4.57902,-4.57902c0.58468,-2.24283 -0.08882,-4.62651 -1.76076,-6.23174l-38.2125,-38.2125c9.04101,-11.03924 14.4875,-25.12485 14.4875,-40.4625c0,-35.27042 -28.72958,-64 -64,-64zM83.2,32c28.35279,0 51.2,22.84722 51.2,51.2c0,28.35279 -22.84721,51.2 -51.2,51.2c-28.35278,0 -51.2,-22.84721 -51.2,-51.2c0,-28.35278 22.84722,-51.2 51.2,-51.2zM83.2,57.6c-14.1376,0 -25.6,11.4624 -25.6,25.6c0,14.1376 11.4624,25.6 25.6,25.6c14.1376,0 25.6,-11.4624 25.6,-25.6c0,-2.5984 -0.5018,-5.0509 -1.225,-7.4125c-2.0352,4.3712 -6.4358,7.4125 -11.575,7.4125c-7.072,0 -12.8,-5.728 -12.8,-12.8c0,-5.1392 3.0413,-9.5398 7.4125,-11.575c-2.3616,-0.7232 -4.8141,-1.225 -7.4125,-1.225z"></path></g><g fill="#000000"><path d=""></path></g></g></svg>